<svg xmlns="http://www.w3.org/2000/svg" xmlns:xlink="http://www.w3.org/1999/xlink" width="500" zoomAndPan="magnify" viewBox="0 0 375 374.999991" height="500" preserveAspectRatio="xMidYMid meet" version="1.0"><defs><g/><clipPath id="b1b315cb34"><path d="M 87 177 L 301 177 L 301 242 L 87 242 Z M 87 177 " clip-rule="nonzero"/></clipPath><clipPath id="95bfd3db95"><path d="M 151.730469 55.175781 L 301.957031 179.503906 L 185.757812 319.90625 L 35.53125 195.578125 Z M 151.730469 55.175781 " clip-rule="nonzero"/></clipPath><clipPath id="98577e2a18"><path d="M 151.730469 55.175781 L 301.957031 179.503906 L 185.757812 319.90625 L 35.53125 195.578125 Z M 151.730469 55.175781 " clip-rule="nonzero"/></clipPath><clipPath id="8d799f113b"><path d="M 87 221 L 135 221 L 135 240 L 87 240 Z M 87 221 " clip-rule="nonzero"/></clipPath><clipPath id="88e62dec5e"><path d="M 151.730469 55.175781 L 301.957031 179.503906 L 185.757812 319.90625 L 35.53125 195.578125 Z M 151.730469 55.175781 " clip-rule="nonzero"/></clipPath><clipPath id="3bcac9479d"><path d="M 151.730469 55.175781 L 301.957031 179.503906 L 185.757812 319.90625 L 35.53125 195.578125 Z M 151.730469 55.175781 " clip-rule="nonzero"/></clipPath><clipPath id="bb5be67944"><path d="M 104 103 L 219 103 L 219 185 L 104 185 Z M 104 103 " clip-rule="nonzero"/></clipPath><clipPath id="6c53fac2f6"><path d="M 151.730469 55.175781 L 301.957031 179.503906 L 185.757812 319.90625 L 35.53125 195.578125 Z M 151.730469 55.175781 " clip-rule="nonzero"/></clipPath><clipPath id="4d70dbc623"><path d="M 151.730469 55.175781 L 301.957031 179.503906 L 185.757812 319.90625 L 35.53125 195.578125 Z M 151.730469 55.175781 " clip-rule="nonzero"/></clipPath><clipPath id="9447996927"><path d="M 107 155 L 142 155 L 142 188 L 107 188 Z M 107 155 " clip-rule="nonzero"/></clipPath><clipPath id="c75bc04916"><path d="M 151.730469 55.175781 L 301.957031 179.503906 L 185.757812 319.90625 L 35.53125 195.578125 Z M 151.730469 55.175781 " clip-rule="nonzero"/></clipPath><clipPath id="dc60ba7525"><path d="M 151.730469 55.175781 L 301.957031 179.503906 L 185.757812 319.90625 L 35.53125 195.578125 Z M 151.730469 55.175781 " clip-rule="nonzero"/></clipPath><clipPath id="1e942a829d"><path d="M 94 167 L 140 167 L 140 192 L 94 192 Z M 94 167 " clip-rule="nonzero"/></clipPath><clipPath id="cd73eb2ca1"><path d="M 151.730469 55.175781 L 301.957031 179.503906 L 185.757812 319.90625 L 35.53125 195.578125 Z M 151.730469 55.175781 " clip-rule="nonzero"/></clipPath><clipPath id="83a1d67dd4"><path d="M 151.730469 55.175781 L 301.957031 179.503906 L 185.757812 319.90625 L 35.53125 195.578125 Z M 151.730469 55.175781 " clip-rule="nonzero"/></clipPath><clipPath id="d430f6fb5e"><path d="M 87 186 L 136 186 L 136 203 L 87 203 Z M 87 186 " clip-rule="nonzero"/></clipPath><clipPath id="0c46487021"><path d="M 151.730469 55.175781 L 301.957031 179.503906 L 185.757812 319.90625 L 35.53125 195.578125 Z M 151.730469 55.175781 " clip-rule="nonzero"/></clipPath><clipPath id="f4e62c6bb1"><path d="M 151.730469 55.175781 L 301.957031 179.503906 L 185.757812 319.90625 L 35.53125 195.578125 Z M 151.730469 55.175781 " clip-rule="nonzero"/></clipPath><clipPath id="bee7662a28"><path d="M 80 199 L 132 199 L 132 229 L 80 229 Z M 80 199 " clip-rule="nonzero"/></clipPath><clipPath id="5d3e9fc73f"><path d="M 151.730469 55.175781 L 301.957031 179.503906 L 185.757812 319.90625 L 35.53125 195.578125 Z M 151.730469 55.175781 " clip-rule="nonzero"/></clipPath><clipPath id="a45702bde8"><path d="M 151.730469 55.175781 L 301.957031 179.503906 L 185.757812 319.90625 L 35.53125 195.578125 Z M 151.730469 55.175781 " clip-rule="nonzero"/></clipPath><clipPath id="fdc66ea6b8"><path d="M 142 205 L 315 205 L 315 255 L 142 255 Z M 142 205 " clip-rule="nonzero"/></clipPath><clipPath id="8336983b45"><path d="M 145.328125 197.453125 L 317.503906 218.46875 L 312.097656 262.765625 L 139.921875 241.75 Z M 145.328125 197.453125 " clip-rule="nonzero"/></clipPath><clipPath id="5c7629a606"><path d="M 231.339844 207.949219 C 183.835938 202.152344 144.117188 207.371094 142.625 219.601562 C 141.128906 231.835938 178.429688 246.453125 225.933594 252.25 C 273.4375 258.046875 313.160156 252.832031 314.652344 240.597656 C 316.144531 228.367188 278.847656 213.75 231.339844 207.949219 Z M 231.339844 207.949219 " clip-rule="nonzero"/></clipPath></defs><rect x="-37.5" width="450" fill="#ffffff" y="-37.499999" height="449.999989" fill-opacity="1"/><rect x="-37.5" width="450" fill="#ffffff" y="-37.499999" height="449.999989" fill-opacity="1"/><g clip-path="url(#b1b315cb34)"><g clip-path="url(#95bfd3db95)"><g clip-path="url(#98577e2a18)"><path fill="#772583" d="M 300.617188 178.527344 C 278.589844 189.546875 252.484375 186.0625 226.972656 182.011719 L 215.644531 187.066406 L 222.714844 181.335938 C 209.164062 179.167969 195.851562 177.070312 183.492188 177.140625 L 176.167969 184.1875 L 181.0625 177.183594 C 160.996094 177.78125 143.613281 184.597656 132.03125 206.960938 C 189.960938 185.925781 222.125 223.664062 274.53125 196.050781 C 231.667969 226.082031 189.710938 194.9375 131.414062 211.402344 L 131.40625 211.394531 C 101.953125 217.847656 87.976562 234.6875 87.976562 234.6875 C 110.371094 216.132812 137.542969 217.304688 137.542969 217.304688 C 137.542969 217.304688 151.496094 229.914062 173.367188 237.101562 L 168.179688 228.757812 L 177.164062 238.261719 C 198.167969 244.285156 225.625 244.816406 254.796875 225.695312 L 245.613281 220.898438 L 256.789062 224.367188 C 260.820312 221.609375 264.882812 218.453125 268.964844 214.894531 L 262.664062 210.355469 L 270.984375 213.125 C 280.828125 204.222656 290.761719 192.863281 300.617188 178.527344 Z M 300.617188 178.527344 " fill-opacity="1" fill-rule="evenodd"/></g></g></g><g clip-path="url(#8d799f113b)"><g clip-path="url(#88e62dec5e)"><g clip-path="url(#3bcac9479d)"><path fill="#3b82f6" d="M 134.621094 221.488281 C 134.621094 221.488281 124.960938 220.433594 112.464844 224.441406 C 113.199219 225.792969 113.085938 227.515625 112.042969 228.773438 C 110.675781 230.425781 108.226562 230.660156 106.570312 229.289062 C 105.902344 228.738281 105.46875 228.007812 105.273438 227.222656 C 99.617188 229.8125 93.675781 233.519531 87.972656 238.820312 C 87.972656 238.820312 102.816406 235.082031 113.359375 239.382812 C 113.359375 239.382812 121.222656 225.722656 134.621094 221.488281 Z M 134.621094 221.488281 " fill-opacity="1" fill-rule="evenodd"/></g></g></g><g clip-path="url(#bb5be67944)"><g clip-path="url(#6c53fac2f6)"><g clip-path="url(#4d70dbc623)"><path fill="#3b82f6" d="M 170.617188 103.890625 L 104.054688 112.78125 L 113.355469 122.039062 L 108.496094 136.460938 C 107.789062 136.578125 107.167969 137.074219 106.921875 137.800781 C 106.773438 138.242188 106.789062 138.699219 106.929688 139.105469 C 106.496094 139.488281 106.03125 140.144531 105.605469 141.253906 C 104.265625 144.78125 105.46875 148.386719 105.46875 148.386719 C 105.46875 148.386719 108.613281 146.246094 109.683594 142.628906 C 110.015625 141.484375 110.046875 140.683594 109.925781 140.117188 C 110.289062 139.878906 110.574219 139.523438 110.722656 139.082031 C 110.96875 138.355469 110.773438 137.582031 110.28125 137.0625 L 114.84375 123.519531 L 126.046875 134.667969 L 124.171875 140.226562 L 122.566406 144.984375 L 119.835938 153.085938 C 119.835938 153.085938 136.320312 161.769531 145.667969 184.109375 C 163.0625 172.53125 181.257812 173.789062 181.257812 173.789062 L 183.988281 165.683594 L 185.539062 161.082031 L 187.476562 155.332031 C 197.726562 154.070312 207.976562 152.625 218.21875 151.257812 Z M 170.617188 103.890625 " fill-opacity="1" fill-rule="evenodd"/></g></g></g><g clip-path="url(#9447996927)"><g clip-path="url(#c75bc04916)"><g clip-path="url(#dc60ba7525)"><path fill="#3b82f6" d="M 116.882812 155.351562 C 116.882812 155.351562 135.515625 170.109375 141.226562 187.171875 C 141.226562 187.171875 118.660156 166.515625 107.175781 163.617188 C 107.175781 163.617188 109.824219 158.519531 116.882812 155.351562 Z M 116.882812 155.351562 " fill-opacity="1" fill-rule="evenodd"/></g></g></g><g clip-path="url(#1e942a829d)"><g clip-path="url(#cd73eb2ca1)"><g clip-path="url(#83a1d67dd4)"><path fill="#772583" d="M 101.46875 167.179688 C 101.46875 167.179688 120.632812 170.6875 139.472656 191.449219 C 139.472656 191.449219 107.652344 178.300781 94.390625 179.667969 C 94.390625 179.667969 95.230469 173.253906 101.46875 167.179688 Z M 101.46875 167.179688 " fill-opacity="1" fill-rule="evenodd"/></g></g></g><g clip-path="url(#d430f6fb5e)"><g clip-path="url(#0c46487021)"><g clip-path="url(#f4e62c6bb1)"><path fill="#3b82f6" d="M 88.976562 187.546875 C 88.976562 187.546875 108.570312 182.5 135.382812 193.859375 C 135.382812 193.859375 99.652344 195.335938 87.746094 202.402344 C 87.746094 202.402344 85.742188 195.988281 88.976562 187.546875 Z M 88.976562 187.546875 " fill-opacity="1" fill-rule="evenodd"/></g></g></g><g clip-path="url(#bee7662a28)"><g clip-path="url(#5d3e9fc73f)"><g clip-path="url(#a45702bde8)"><path fill="#772583" d="M 80.992188 212.527344 C 80.992188 212.527344 99.167969 199.035156 131.730469 199.503906 C 131.730469 199.503906 95.339844 216.097656 85.984375 228.441406 C 85.984375 228.441406 81.207031 222.640625 80.992188 212.527344 Z M 80.992188 212.527344 " fill-opacity="1" fill-rule="evenodd"/></g></g></g><g clip-path="url(#fdc66ea6b8)"><g clip-path="url(#8336983b45)"><g clip-path="url(#5c7629a606)"><path fill="#ffffff" d="M 145.328125 197.453125 L 317.332031 218.445312 L 311.921875 262.746094 L 139.921875 241.75 Z M 145.328125 197.453125 " fill-opacity="1" fill-rule="nonzero"/></g></g></g><path stroke-linecap="butt" transform="matrix(0.75, 0, 0, 0.75, 127.482608, 194.104103)" fill="none" stroke-linejoin="miter" d="M 52.820068 43.939324 C 48.533609 43.939324 45.106525 43.507032 42.544025 42.642448 C 39.986733 41.777865 38.142983 40.590365 37.007567 39.07474 C 35.882567 37.559115 35.320066 35.829948 35.320066 33.88724 C 35.320066 32.491406 35.49715 31.059114 35.851317 29.585156 C 36.210692 28.111198 36.549233 26.809114 36.877358 25.684114 L 42.455484 26.980989 C 42.252359 27.809114 42.054442 28.689323 41.856525 29.626823 C 41.669025 30.564323 41.575275 31.392448 41.575275 32.111198 C 41.575275 33.236198 41.9659 34.220573 42.752359 35.053906 C 43.544025 35.892448 44.846109 36.538281 46.653401 37.007031 C 48.471109 37.465365 50.908609 37.694531 53.976318 37.694531 L 53.976318 37.82474 L 54.017984 37.694531 C 59.794026 37.694531 64.090902 37.366406 66.903402 36.710156 C 69.715902 36.048698 71.122152 34.902865 71.122152 33.267448 C 71.122152 32.199739 70.93986 30.918489 70.585694 29.428906 C 70.231527 27.944531 69.767985 26.408072 69.200277 24.829947 L 75.054444 23.132031 C 75.439861 24.147656 75.809652 25.262239 76.163819 26.465364 C 76.523194 27.668489 76.809653 28.866406 77.028403 30.074739 C 77.252361 31.283073 77.366944 32.402864 77.366944 33.444531 C 77.366944 35.288281 76.960694 36.876823 76.153402 38.204948 C 75.356527 39.527865 74.028402 40.611198 72.163819 41.465365 C 70.304444 42.303907 67.799235 42.928907 64.648193 43.32474 C 61.491943 43.736199 57.56486 43.939324 52.866943 43.939324 L 52.866943 43.892449 Z M 52.460693 23.491406 C 51.606526 23.491406 50.872151 23.184114 50.257567 22.574739 C 49.648192 21.965364 49.346109 21.241405 49.346109 20.408072 C 49.346109 19.543489 49.648192 18.798697 50.257567 18.173697 C 50.872151 17.548697 51.606526 17.236197 52.460693 17.236197 C 53.299234 17.236197 54.012776 17.548697 54.606526 18.173697 C 55.205484 18.798697 55.502359 19.543489 55.502359 20.408072 C 55.502359 21.241405 55.205484 21.965364 54.606526 22.574739 C 54.012776 23.184114 53.299234 23.491406 52.460693 23.491406 Z M 60.18986 23.533072 C 59.325276 23.533072 58.585693 23.236197 57.976318 22.642447 C 57.366943 22.043489 57.059651 21.314322 57.059651 20.449739 C 57.059651 19.595572 57.366943 18.85078 57.976318 18.22578 C 58.585693 17.60078 59.325276 17.28828 60.18986 17.28828 C 61.023193 17.28828 61.741943 17.60078 62.335693 18.22578 C 62.929443 18.85078 63.231527 19.595572 63.231527 20.449739 C 63.231527 21.314322 62.929443 22.043489 62.335693 22.642447 C 61.741943 23.236197 61.023193 23.533072 60.18986 23.533072 Z M 80.038819 43.001823 L 79.101319 10.324738 L 85.346111 10.324738 L 86.283611 43.001823 Z M 86.236736 53.309116 L 83.960695 47.772657 C 86.07007 47.033074 87.939862 46.158074 89.575278 45.158074 C 91.215903 44.163282 92.50757 43.017448 93.439862 41.725782 C 94.377362 40.434115 94.846112 38.98099 94.846112 37.376823 C 94.846112 36.126823 94.564862 34.757031 93.997154 33.267448 C 93.429445 31.777864 92.747154 30.262239 91.950279 28.710156 L 97.788821 25.902864 C 98.299237 26.824739 98.762779 27.814322 99.174237 28.876823 C 99.596112 29.928906 99.939862 30.871614 100.200279 31.710156 C 100.465904 32.538281 100.648196 33.100781 100.741946 33.397656 C 101.158612 34.829948 101.726321 35.783073 102.455488 36.26224 C 103.189863 36.736198 104.372154 36.970573 106.007571 36.970573 C 107.111738 36.970573 107.913821 37.26224 108.41903 37.845573 C 108.924238 38.423698 109.179446 39.147657 109.179446 40.01224 C 109.179446 40.934115 108.866946 41.704948 108.241946 42.314323 C 107.616946 42.91849 106.726321 43.215365 105.559654 43.215365 C 103.299238 43.215365 101.575279 42.611198 100.382571 41.397657 C 99.877362 43.236199 98.913821 44.934115 97.497154 46.496615 C 96.085695 48.069532 94.403404 49.428907 92.439862 50.585157 C 90.47632 51.746616 88.408612 52.658074 86.236736 53.309116 Z M 102.476321 43.215365 L 102.924238 36.970573 C 103.991946 36.970573 104.908613 36.871615 105.679446 36.66849 C 106.455488 36.454948 107.116946 36.033073 107.653405 35.392448 C 108.189863 34.751823 108.642988 33.809115 109.01278 32.559114 C 109.382571 31.309114 109.721113 29.642448 110.017988 27.559114 L 115.872155 28.538281 C 115.747155 29.220573 115.60653 30.038281 115.455488 30.991406 C 115.309655 31.939323 115.236738 32.819531 115.236738 33.626823 C 115.236738 34.694531 115.684655 35.517448 116.580488 36.100781 C 117.471114 36.684115 119.002364 36.970573 121.179447 36.970573 C 122.283614 36.970573 123.075281 37.26224 123.564864 37.845573 C 124.059656 38.423698 124.304447 39.147657 124.304447 40.01224 C 124.304447 40.934115 124.002364 41.704948 123.387781 42.314323 C 122.778406 42.91849 121.892989 43.215365 120.73153 43.215365 C 118.653405 43.215365 116.877364 42.954948 115.403405 42.423698 C 113.924238 41.88724 112.846113 40.934115 112.163822 39.569532 C 111.35653 40.63724 110.408613 41.428907 109.320071 41.954948 C 108.236738 42.470573 107.10653 42.809115 105.929446 42.975782 C 104.762779 43.13724 103.606529 43.215365 102.476321 43.215365 Z M 114.934655 53.569533 C 114.070072 53.569533 113.330488 53.272657 112.721113 52.678907 C 112.111738 52.079949 111.804447 51.355991 111.804447 50.496616 C 111.804447 49.632032 112.111738 48.887241 112.721113 48.26224 C 113.330488 47.63724 114.070072 47.32474 114.934655 47.32474 C 115.767988 47.32474 116.48153 47.63724 117.080489 48.26224 C 117.674239 48.887241 117.971114 49.632032 117.971114 50.496616 C 117.971114 51.355991 117.674239 52.079949 117.080489 52.678907 C 116.48153 53.272657 115.767988 53.569533 114.934655 53.569533 Z M 107.215905 53.569533 C 106.351321 53.569533 105.611738 53.272657 105.002363 52.678907 C 104.392988 52.079949 104.090904 51.355991 104.090904 50.496616 C 104.090904 49.632032 104.392988 48.887241 105.002363 48.26224 C 105.611738 47.63724 106.351321 47.32474 107.215905 47.32474 C 108.04403 47.32474 108.757571 47.63724 109.351321 48.26224 C 109.95028 48.887241 110.247155 49.632032 110.247155 50.496616 C 110.247155 51.355991 109.95028 52.079949 109.351321 52.678907 C 108.757571 53.272657 108.04403 53.569533 107.215905 53.569533 Z M 117.429447 43.215365 L 117.872155 36.970573 C 119.299239 36.970573 120.627364 36.908073 121.861739 36.777865 C 123.096114 36.63724 124.236739 36.44974 125.283614 36.210156 C 124.653406 35.496615 123.997156 34.814323 123.314864 34.163281 C 122.627364 33.507031 122.017989 32.954948 121.48153 32.507031 C 121.335697 32.387239 121.163822 32.074739 120.971114 31.559114 C 120.778405 31.033073 120.611739 30.486198 120.455489 29.923698 C 120.309655 29.355989 120.241947 28.939323 120.241947 28.668489 C 120.241947 27.986197 120.559655 27.257031 121.20028 26.491406 C 121.835697 25.710156 122.700281 24.986197 123.783614 24.319531 C 124.872156 23.652864 126.075281 23.100781 127.398198 22.673697 C 128.721114 22.236197 130.070073 22.022655 131.445073 22.022655 C 134.184656 22.022655 136.257573 22.616405 137.663823 23.809114 C 139.08049 25.001822 139.788823 26.559114 139.788823 28.496614 C 139.788823 29.829948 139.512782 31.173698 138.960698 32.517448 C 138.408615 33.850781 137.585698 35.116406 136.48674 36.309115 C 137.413823 36.51224 138.39299 36.673698 139.429448 36.798698 C 140.471115 36.913281 141.544032 36.970573 142.648199 36.970573 C 143.741949 36.970573 144.544032 37.26224 145.054449 37.845573 C 145.564865 38.423698 145.820074 39.147657 145.820074 40.01224 C 145.820074 40.934115 145.507574 41.704948 144.882574 42.314323 C 144.257574 42.91849 143.36174 43.215365 142.200282 43.215365 C 139.669032 43.215365 137.434657 43.001823 135.497156 42.57474 C 133.564865 42.147657 131.840906 41.527865 130.320073 40.720573 C 128.627364 41.501823 126.700281 42.111198 124.544031 42.553907 C 122.387781 42.996615 120.01278 43.215365 117.429447 43.215365 Z M 126.038822 28.579948 C 126.783614 29.178906 127.627364 29.934114 128.564864 30.861198 C 129.502364 31.783073 130.372156 32.720573 131.169031 33.66849 C 132.804448 32.449739 133.622156 31.126823 133.622156 29.694531 C 133.622156 29.095573 133.403406 28.569531 132.95549 28.111198 C 132.512781 27.647656 131.710698 27.413281 130.549239 27.413281 C 129.955489 27.413281 129.221114 27.512239 128.356531 27.710156 C 127.491948 27.908072 126.721114 28.194531 126.038822 28.579948 Z M 130.950281 17.866405 C 130.028406 17.866405 129.247156 17.553905 128.596114 16.928905 C 127.960698 16.303905 127.637781 15.533072 127.637781 14.611197 C 127.637781 13.689322 127.960698 12.897655 128.596114 12.246613 C 129.247156 11.590363 130.028406 11.262238 130.950281 11.262238 C 131.840906 11.262238 132.601323 11.590363 133.241948 12.246613 C 133.887781 12.897655 134.210698 13.689322 134.210698 14.611197 C 134.210698 15.533072 133.887781 16.303905 133.241948 16.928905 C 132.601323 17.553905 131.840906 17.866405 130.950281 17.866405 Z M 162.236741 43.803907 C 158.903408 43.803907 156.236741 43.626824 154.236741 43.26224 C 152.247157 42.908073 150.705491 42.413282 149.616949 41.788282 C 148.533616 41.163282 147.710699 40.439323 147.14299 39.611198 C 146.044032 41.189323 144.794032 42.184115 143.39299 42.595573 C 141.997157 43.01224 140.570073 43.215365 139.11174 43.215365 L 139.554448 36.970573 C 140.778407 36.970573 141.679448 36.694531 142.257574 36.142448 C 142.840907 35.590365 143.314865 34.678906 143.684657 33.397656 C 144.059657 32.121614 144.528407 30.382031 145.090907 28.178906 L 150.762782 29.564323 C 150.137782 31.975781 149.825282 33.538281 149.825282 34.246615 C 149.825282 34.934115 150.007574 35.496615 150.377366 35.94974 C 150.747157 36.392448 151.528407 36.746615 152.721116 37.017448 C 153.882574 35.23099 155.179449 33.527865 156.601324 31.902864 C 158.033616 30.283073 159.549241 28.850781 161.158616 27.600781 C 162.767992 26.350781 164.439867 25.371614 166.158617 24.658072 C 167.887784 23.939322 169.642992 23.579947 171.424242 23.579947 C 174.403409 23.579947 176.715909 24.428906 178.366951 26.126822 C 180.023201 27.819531 180.851326 30.007031 180.851326 32.689323 C 180.851326 34.861198 180.231534 36.783073 178.997159 38.454948 C 177.762784 40.121615 175.783617 41.428907 173.059659 42.376823 C 170.3357 43.329949 166.726325 43.803907 162.236741 43.803907 Z M 170.80445 29.835156 C 169.497159 29.835156 168.174242 30.204948 166.846117 30.944531 C 165.5232 31.689323 164.247158 32.652864 163.007575 33.845573 C 161.7732 35.038281 160.669033 36.272656 159.684658 37.548698 C 160.137783 37.548698 160.611741 37.548698 161.111741 37.548698 C 164.533617 37.548698 167.226325 37.38724 169.189867 37.059115 C 171.158617 36.73099 172.549242 36.241406 173.361742 35.590365 C 174.184659 34.934115 174.596117 34.116406 174.596117 33.13724 C 174.596117 32.303906 174.299242 31.543489 173.700284 30.861198 C 173.106534 30.173698 172.137784 29.835156 170.80445 29.835156 Z M 170.80445 29.835156 " stroke="#ffffff" stroke-width="9.598417" stroke-opacity="1" stroke-miterlimit="4"/><g fill="#3b82f6" fill-opacity="1"><g transform="translate(152.900575, 226.354101)"><g><path d="M 14.203125 0.703125 C 10.984375 0.703125 8.410156 0.378906 6.484375 -0.265625 C 4.566406 -0.910156 3.1875 -1.800781 2.34375 -2.9375 C 1.5 -4.082031 1.078125 -5.378906 1.078125 -6.828125 C 1.078125 -7.878906 1.207031 -8.957031 1.46875 -10.0625 C 1.738281 -11.164062 2 -12.140625 2.25 -12.984375 L 6.421875 -12.015625 C 6.265625 -11.390625 6.113281 -10.722656 5.96875 -10.015625 C 5.832031 -9.316406 5.765625 -8.703125 5.765625 -8.171875 C 5.765625 -7.316406 6.054688 -6.578125 6.640625 -5.953125 C 7.234375 -5.328125 8.210938 -4.84375 9.578125 -4.5 C 10.941406 -4.15625 12.769531 -3.984375 15.0625 -3.984375 L 15.0625 -3.890625 L 15.09375 -3.984375 C 19.425781 -3.984375 22.644531 -4.226562 24.75 -4.71875 C 26.863281 -5.207031 27.921875 -6.066406 27.921875 -7.296875 C 27.921875 -8.097656 27.785156 -9.054688 27.515625 -10.171875 C 27.253906 -11.296875 26.910156 -12.445312 26.484375 -13.625 L 30.875 -14.90625 C 31.164062 -14.144531 31.441406 -13.3125 31.703125 -12.40625 C 31.972656 -11.5 32.191406 -10.59375 32.359375 -9.6875 C 32.523438 -8.789062 32.609375 -7.953125 32.609375 -7.171875 C 32.609375 -5.785156 32.304688 -4.59375 31.703125 -3.59375 C 31.109375 -2.601562 30.113281 -1.789062 28.71875 -1.15625 C 27.320312 -0.519531 25.4375 -0.0507812 23.0625 0.25 C 20.695312 0.550781 17.753906 0.703125 14.234375 0.703125 L 14.234375 0.671875 Z M 13.921875 -14.640625 C 13.273438 -14.640625 12.722656 -14.867188 12.265625 -15.328125 C 11.804688 -15.785156 11.578125 -16.328125 11.578125 -16.953125 C 11.578125 -17.597656 11.804688 -18.15625 12.265625 -18.625 C 12.722656 -19.09375 13.273438 -19.328125 13.921875 -19.328125 C 14.546875 -19.328125 15.082031 -19.09375 15.53125 -18.625 C 15.976562 -18.15625 16.203125 -17.597656 16.203125 -16.953125 C 16.203125 -16.328125 15.976562 -15.785156 15.53125 -15.328125 C 15.082031 -14.867188 14.546875 -14.640625 13.921875 -14.640625 Z M 19.71875 -14.609375 C 19.070312 -14.609375 18.519531 -14.828125 18.0625 -15.265625 C 17.601562 -15.710938 17.375 -16.257812 17.375 -16.90625 C 17.375 -17.5625 17.601562 -18.125 18.0625 -18.59375 C 18.519531 -19.0625 19.070312 -19.296875 19.71875 -19.296875 C 20.34375 -19.296875 20.875 -19.0625 21.3125 -18.59375 C 21.757812 -18.125 21.984375 -17.5625 21.984375 -16.90625 C 21.984375 -16.257812 21.757812 -15.710938 21.3125 -15.265625 C 20.875 -14.828125 20.34375 -14.609375 19.71875 -14.609375 Z M 19.71875 -14.609375 "/></g></g></g><g fill="#3b82f6" fill-opacity="1"><g transform="translate(184.828808, 226.354101)"><g><path d="M 2.671875 0 L 1.96875 -24.515625 L 6.65625 -24.515625 L 7.359375 0 Z M 2.671875 0 "/></g></g></g><g fill="#3b82f6" fill-opacity="1"><g transform="translate(191.621983, 226.354101)"><g><path d="M 0.53125 7.734375 L -1.171875 3.578125 C 0.410156 3.023438 1.816406 2.375 3.046875 1.625 C 4.273438 0.875 5.238281 0.015625 5.9375 -0.953125 C 6.644531 -1.921875 7 -3.007812 7 -4.21875 C 7 -5.15625 6.785156 -6.179688 6.359375 -7.296875 C 5.929688 -8.410156 5.421875 -9.550781 4.828125 -10.71875 L 9.203125 -12.828125 C 9.585938 -12.128906 9.9375 -11.382812 10.25 -10.59375 C 10.5625 -9.800781 10.816406 -9.09375 11.015625 -8.46875 C 11.210938 -7.84375 11.347656 -7.421875 11.421875 -7.203125 C 11.734375 -6.128906 12.160156 -5.410156 12.703125 -5.046875 C 13.253906 -4.691406 14.144531 -4.515625 15.375 -4.515625 C 16.195312 -4.515625 16.796875 -4.296875 17.171875 -3.859375 C 17.554688 -3.429688 17.75 -2.894531 17.75 -2.25 C 17.75 -1.550781 17.515625 -0.972656 17.046875 -0.515625 C 16.578125 -0.0546875 15.90625 0.171875 15.03125 0.171875 C 13.332031 0.171875 12.039062 -0.285156 11.15625 -1.203125 C 10.769531 0.179688 10.046875 1.457031 8.984375 2.625 C 7.929688 3.800781 6.664062 4.820312 5.1875 5.6875 C 3.71875 6.5625 2.164062 7.242188 0.53125 7.734375 Z M 0.53125 7.734375 "/></g></g></g><g fill="#3b82f6" fill-opacity="1"><g transform="translate(204.339133, 226.354101)"><g><path d="M 0 0.171875 L 0.328125 -4.515625 C 1.140625 -4.515625 1.832031 -4.59375 2.40625 -4.75 C 2.988281 -4.90625 3.476562 -5.222656 3.875 -5.703125 C 4.28125 -6.179688 4.625 -6.890625 4.90625 -7.828125 C 5.1875 -8.765625 5.4375 -10.015625 5.65625 -11.578125 L 10.046875 -10.84375 C 9.953125 -10.332031 9.847656 -9.71875 9.734375 -9 C 9.628906 -8.289062 9.578125 -7.632812 9.578125 -7.03125 C 9.578125 -6.226562 9.910156 -5.609375 10.578125 -5.171875 C 11.242188 -4.734375 12.394531 -4.515625 14.03125 -4.515625 C 14.851562 -4.515625 15.445312 -4.296875 15.8125 -3.859375 C 16.1875 -3.429688 16.375 -2.894531 16.375 -2.25 C 16.375 -1.550781 16.144531 -0.972656 15.6875 -0.515625 C 15.226562 -0.0546875 14.5625 0.171875 13.6875 0.171875 C 12.125 0.171875 10.789062 -0.0234375 9.6875 -0.421875 C 8.582031 -0.828125 7.773438 -1.546875 7.265625 -2.578125 C 6.660156 -1.773438 5.953125 -1.175781 5.140625 -0.78125 C 4.328125 -0.394531 3.476562 -0.140625 2.59375 -0.015625 C 1.707031 0.109375 0.84375 0.171875 0 0.171875 Z M 9.34375 7.9375 C 8.695312 7.9375 8.144531 7.710938 7.6875 7.265625 C 7.226562 6.816406 7 6.269531 7 5.625 C 7 4.976562 7.226562 4.421875 7.6875 3.953125 C 8.144531 3.484375 8.695312 3.25 9.34375 3.25 C 9.96875 3.25 10.503906 3.484375 10.953125 3.953125 C 11.398438 4.421875 11.625 4.976562 11.625 5.625 C 11.625 6.269531 11.398438 6.816406 10.953125 7.265625 C 10.503906 7.710938 9.96875 7.9375 9.34375 7.9375 Z M 3.546875 7.9375 C 2.898438 7.9375 2.347656 7.710938 1.890625 7.265625 C 1.429688 6.816406 1.203125 6.269531 1.203125 5.625 C 1.203125 4.976562 1.429688 4.421875 1.890625 3.953125 C 2.347656 3.484375 2.898438 3.25 3.546875 3.25 C 4.171875 3.25 4.707031 3.484375 5.15625 3.953125 C 5.601562 4.421875 5.828125 4.976562 5.828125 5.625 C 5.828125 6.269531 5.601562 6.816406 5.15625 7.265625 C 4.707031 7.710938 4.171875 7.9375 3.546875 7.9375 Z M 3.546875 7.9375 "/></g></g></g><g fill="#3b82f6" fill-opacity="1"><g transform="translate(215.684066, 226.354101)"><g><path d="M -0.140625 0.171875 L 0.203125 -4.515625 C 1.273438 -4.515625 2.273438 -4.566406 3.203125 -4.671875 C 4.128906 -4.773438 4.984375 -4.914062 5.765625 -5.09375 C 5.296875 -5.625 4.800781 -6.132812 4.28125 -6.625 C 3.769531 -7.113281 3.3125 -7.53125 2.90625 -7.875 C 2.800781 -7.957031 2.675781 -8.191406 2.53125 -8.578125 C 2.382812 -8.972656 2.253906 -9.382812 2.140625 -9.8125 C 2.023438 -10.238281 1.96875 -10.550781 1.96875 -10.75 C 1.96875 -11.257812 2.207031 -11.804688 2.6875 -12.390625 C 3.175781 -12.972656 3.828125 -13.515625 4.640625 -14.015625 C 5.453125 -14.515625 6.351562 -14.925781 7.34375 -15.25 C 8.34375 -15.570312 9.351562 -15.734375 10.375 -15.734375 C 12.425781 -15.734375 13.984375 -15.285156 15.046875 -14.390625 C 16.109375 -13.503906 16.640625 -12.332031 16.640625 -10.875 C 16.640625 -9.875 16.429688 -8.867188 16.015625 -7.859375 C 15.609375 -6.859375 14.988281 -5.910156 14.15625 -5.015625 C 14.851562 -4.859375 15.59375 -4.734375 16.375 -4.640625 C 17.15625 -4.554688 17.957031 -4.515625 18.78125 -4.515625 C 19.613281 -4.515625 20.21875 -4.296875 20.59375 -3.859375 C 20.96875 -3.429688 21.15625 -2.894531 21.15625 -2.25 C 21.15625 -1.550781 20.921875 -0.972656 20.453125 -0.515625 C 19.984375 -0.0546875 19.316406 0.171875 18.453125 0.171875 C 16.554688 0.171875 14.878906 0.0078125 13.421875 -0.3125 C 11.972656 -0.632812 10.679688 -1.097656 9.546875 -1.703125 C 8.273438 -1.128906 6.828125 -0.671875 5.203125 -0.328125 C 3.585938 0.00390625 1.804688 0.171875 -0.140625 0.171875 Z M 6.328125 -10.8125 C 6.890625 -10.363281 7.519531 -9.789062 8.21875 -9.09375 C 8.925781 -8.40625 9.578125 -7.707031 10.171875 -7 C 11.398438 -7.914062 12.015625 -8.910156 12.015625 -9.984375 C 12.015625 -10.421875 11.847656 -10.8125 11.515625 -11.15625 C 11.179688 -11.507812 10.578125 -11.6875 9.703125 -11.6875 C 9.265625 -11.6875 8.71875 -11.613281 8.0625 -11.46875 C 7.414062 -11.320312 6.835938 -11.101562 6.328125 -10.8125 Z M 10 -18.859375 C 9.3125 -18.859375 8.726562 -19.09375 8.25 -19.5625 C 7.769531 -20.03125 7.53125 -20.609375 7.53125 -21.296875 C 7.53125 -21.992188 7.769531 -22.585938 8.25 -23.078125 C 8.726562 -23.566406 9.3125 -23.8125 10 -23.8125 C 10.675781 -23.8125 11.253906 -23.566406 11.734375 -23.078125 C 12.210938 -22.585938 12.453125 -21.992188 12.453125 -21.296875 C 12.453125 -20.609375 12.210938 -20.03125 11.734375 -19.5625 C 11.253906 -19.09375 10.675781 -18.859375 10 -18.859375 Z M 10 -18.859375 "/></g></g></g><g fill="#3b82f6" fill-opacity="1"><g transform="translate(231.815033, 226.354101)"><g><path d="M 17.34375 0.609375 C 14.84375 0.609375 12.84375 0.472656 11.34375 0.203125 C 9.851562 -0.0664062 8.695312 -0.4375 7.875 -0.90625 C 7.0625 -1.375 6.445312 -1.921875 6.03125 -2.546875 C 5.195312 -1.359375 4.253906 -0.609375 3.203125 -0.296875 C 2.160156 0.015625 1.09375 0.171875 0 0.171875 L 0.328125 -4.515625 C 1.242188 -4.515625 1.921875 -4.722656 2.359375 -5.140625 C 2.796875 -5.554688 3.148438 -6.242188 3.421875 -7.203125 C 3.703125 -8.160156 4.054688 -9.460938 4.484375 -11.109375 L 8.734375 -10.078125 C 8.265625 -8.265625 8.03125 -7.09375 8.03125 -6.5625 C 8.03125 -6.050781 8.171875 -5.625 8.453125 -5.28125 C 8.734375 -4.945312 9.320312 -4.679688 10.21875 -4.484375 C 11.082031 -5.828125 12.050781 -7.101562 13.125 -8.3125 C 14.195312 -9.53125 15.332031 -10.609375 16.53125 -11.546875 C 17.738281 -12.484375 18.988281 -13.21875 20.28125 -13.75 C 21.582031 -14.289062 22.90625 -14.5625 24.25 -14.5625 C 26.476562 -14.5625 28.210938 -13.925781 29.453125 -12.65625 C 30.691406 -11.382812 31.3125 -9.742188 31.3125 -7.734375 C 31.3125 -6.109375 30.847656 -4.671875 29.921875 -3.421875 C 28.992188 -2.171875 27.507812 -1.1875 25.46875 -0.46875 C 23.425781 0.25 20.71875 0.609375 17.34375 0.609375 Z M 23.78125 -9.875 C 22.789062 -9.875 21.800781 -9.59375 20.8125 -9.03125 C 19.820312 -8.476562 18.863281 -7.753906 17.9375 -6.859375 C 17.007812 -5.972656 16.175781 -5.046875 15.4375 -4.078125 C 15.769531 -4.078125 16.128906 -4.078125 16.515625 -4.078125 C 19.078125 -4.078125 21.09375 -4.203125 22.5625 -4.453125 C 24.039062 -4.703125 25.085938 -5.070312 25.703125 -5.5625 C 26.316406 -6.050781 26.625 -6.664062 26.625 -7.40625 C 26.625 -8.03125 26.398438 -8.597656 25.953125 -9.109375 C 25.503906 -9.617188 24.78125 -9.875 23.78125 -9.875 Z M 23.78125 -9.875 "/></g></g></g><path stroke-linecap="butt" transform="matrix(0.75, 0, 0, 0.75, 94.418883, 233.540711)" fill="none" stroke-linejoin="miter" d="M 169.129 6.518636 C 169.399834 6.518636 169.53525 6.617594 169.53525 6.820719 C 169.53525 7.029052 169.399834 7.133219 169.129 7.133219 L 168.405042 7.133219 L 168.405042 15.60197 C 168.405042 16.294678 168.134209 16.810303 167.592542 17.148845 C 167.056084 17.492595 166.399833 17.66447 165.629 17.66447 C 164.821708 17.66447 164.155042 17.503011 163.618583 17.180095 C 163.082125 16.862386 162.811292 16.336345 162.811292 15.60197 L 162.811292 14.711345 L 163.217542 13.555094 C 163.259208 13.414469 163.358167 13.341553 163.519625 13.341553 C 163.59775 13.341553 163.670667 13.367594 163.733167 13.419678 C 163.800875 13.471761 163.832125 13.539469 163.832125 13.628011 C 163.832125 13.664469 163.826917 13.706136 163.806083 13.768636 L 163.415458 14.924886 L 163.415458 15.60197 C 163.415458 16.10197 163.634208 16.471761 164.071708 16.706136 C 164.504 16.940511 165.040458 17.060303 165.670667 17.060303 C 166.274833 17.060303 166.780042 16.940511 167.1915 16.700928 C 167.602959 16.461345 167.806084 16.096761 167.806084 15.60197 L 167.806084 6.518636 Z M 176.842542 6.534261 L 176.842542 14.997803 C 176.842542 15.200928 176.743584 15.299886 176.540459 15.299886 C 176.337334 15.299886 176.238376 15.200928 176.238376 14.997803 L 176.238376 6.534261 C 176.238376 6.331136 176.337334 6.232177 176.540459 6.232177 C 176.743584 6.232177 176.842542 6.331136 176.842542 6.534261 Z M 176.842542 6.534261 " stroke="#ffffff" stroke-width="3.950468" stroke-opacity="1" stroke-miterlimit="4"/><g fill="#ca8a04" fill-opacity="1"><g transform="translate(215.625906, 244.79071)"><g><path d="M 5.640625 -6.359375 C 5.835938 -6.359375 5.9375 -6.285156 5.9375 -6.140625 C 5.9375 -5.984375 5.835938 -5.90625 5.640625 -5.90625 L 5.09375 -5.90625 L 5.09375 0.453125 C 5.09375 0.972656 4.890625 1.359375 4.484375 1.609375 C 4.078125 1.867188 3.585938 2 3.015625 2 C 2.410156 2 1.90625 1.878906 1.5 1.640625 C 1.101562 1.398438 0.90625 1.003906 0.90625 0.453125 L 0.90625 -0.21875 L 1.203125 -1.078125 C 1.234375 -1.179688 1.3125 -1.234375 1.4375 -1.234375 C 1.488281 -1.234375 1.539062 -1.210938 1.59375 -1.171875 C 1.644531 -1.140625 1.671875 -1.09375 1.671875 -1.03125 C 1.671875 -1.007812 1.660156 -0.972656 1.640625 -0.921875 L 1.359375 -0.0625 L 1.359375 0.453125 C 1.359375 0.828125 1.519531 1.101562 1.84375 1.28125 C 2.164062 1.457031 2.566406 1.546875 3.046875 1.546875 C 3.492188 1.546875 3.867188 1.453125 4.171875 1.265625 C 4.484375 1.085938 4.640625 0.816406 4.640625 0.453125 L 4.640625 -6.359375 Z M 5.640625 -6.359375 "/></g></g></g><g fill="#ca8a04" fill-opacity="1"><g transform="translate(223.439701, 244.79071)"><g><path d="M 3.609375 -6.34375 L 3.609375 0 C 3.609375 0.144531 3.53125 0.21875 3.375 0.21875 C 3.226562 0.21875 3.15625 0.144531 3.15625 0 L 3.15625 -6.34375 C 3.15625 -6.5 3.226562 -6.578125 3.375 -6.578125 C 3.53125 -6.578125 3.609375 -6.5 3.609375 -6.34375 Z M 3.609375 -6.34375 "/></g></g></g><g fill="#ca8a04" fill-opacity="1"><g transform="translate(231.258722, 244.79071)"><g/></g></g><path stroke-linecap="butt" transform="matrix(0.75, 0, 0, 0.75, 163.737591, 233.540711)" fill="none" stroke-linejoin="miter" d="M 1.026962 8.450927 C 1.224878 8.654052 1.448837 8.758219 1.698837 8.758219 C 1.990503 8.758219 2.21967 8.654052 2.381128 8.450927 C 2.547795 8.242594 2.667587 7.956136 2.735295 7.586344 C 2.818628 7.174886 2.93842 6.773844 3.09467 6.388427 C 3.256128 6.003011 3.495712 5.612386 3.803003 5.226969 C 3.922795 5.065511 4.006128 4.909261 4.047795 4.758219 C 4.09467 4.607177 4.120712 4.450927 4.120712 4.294677 C 4.120712 4.060302 4.058212 3.831135 3.93842 3.59676 C 3.818628 3.367594 3.651962 3.174885 3.43842 3.013427 C 3.21967 2.851969 2.959253 2.773844 2.646753 2.773844 C 2.365503 2.773844 2.12592 2.825927 1.933212 2.930094 C 1.735295 3.03426 1.537378 3.232177 1.339462 3.523844 C 1.026962 3.966552 0.797795 4.471761 0.636337 5.039469 C 0.485295 5.601969 0.40717 6.107177 0.40717 6.549886 C 0.40717 6.930094 0.464462 7.289469 0.573837 7.628011 C 0.683212 7.971761 0.834253 8.242594 1.026962 8.450927 Z M 5.391545 9.279053 C 5.584254 9.482178 5.808212 9.586344 6.06342 9.586344 C 6.349879 9.586344 6.579045 9.482178 6.745712 9.279053 C 6.912379 9.075928 7.026962 8.784261 7.099879 8.414469 C 7.15717 8.122802 7.245712 7.851969 7.360295 7.601969 C 7.474879 7.346761 7.646754 7.081136 7.865504 6.805094 C 8.016545 6.612386 8.12592 6.440511 8.193629 6.284261 C 8.266545 6.128011 8.303004 5.956136 8.303004 5.763427 C 8.303004 5.555094 8.240504 5.341552 8.115504 5.117594 C 7.990504 4.898844 7.81342 4.716552 7.579045 4.570719 C 7.349879 4.424886 7.073837 4.351969 6.75092 4.351969 C 6.46967 4.351969 6.224879 4.404052 6.016545 4.508219 C 5.803004 4.612386 5.599879 4.815511 5.396754 5.101969 C 5.178004 5.424886 5.016545 5.799886 4.917587 6.232177 C 4.818629 6.664469 4.766545 7.044677 4.766545 7.372802 C 4.766545 7.753011 4.818629 8.117594 4.933212 8.461344 C 5.042587 8.799886 5.198837 9.075928 5.391545 9.279053 Z M 11.365504 14.518636 C 11.881129 14.930095 12.636337 15.138428 13.636337 15.138428 C 14.375921 15.138428 15.021754 15.081136 15.573838 14.97697 C 16.125921 14.872803 16.589463 14.711345 16.959254 14.497803 C 17.329046 14.279053 17.610296 14.00822 17.787379 13.669678 C 17.969671 13.331136 18.063421 12.935303 18.063421 12.471761 C 18.063421 11.982178 17.938421 11.560303 17.698838 11.211344 C 17.459254 10.857178 17.146754 10.549886 16.771754 10.294678 C 16.396754 10.029053 16.000921 9.810303 15.579046 9.622803 C 15.157171 9.440511 14.756129 9.268636 14.381129 9.122803 C 14.006129 8.971761 13.693629 8.820719 13.454046 8.674886 C 13.214462 8.529052 13.094671 8.378011 13.094671 8.216552 C 13.094671 8.065511 13.261337 7.909261 13.584254 7.742594 C 13.912379 7.575927 14.360296 7.414469 14.938421 7.247802 C 15.511338 7.081136 16.172796 6.930094 16.917588 6.789469 C 17.198838 6.737386 17.401963 6.612386 17.532171 6.419677 C 17.662379 6.221761 17.724879 5.997802 17.724879 5.753011 C 17.724879 5.503011 17.683213 5.268636 17.589463 5.055094 C 17.500921 4.836344 17.355088 4.659261 17.141546 4.523844 C 16.933213 4.388427 16.646754 4.320719 16.282171 4.320719 C 15.912379 4.320719 15.474879 4.378011 14.969671 4.492594 C 14.464462 4.612386 13.943629 4.773844 13.417587 4.992594 C 12.891546 5.206136 12.396754 5.471761 11.938421 5.789469 C 11.474879 6.101969 11.105087 6.461344 10.823837 6.857177 C 10.542587 7.253011 10.407171 7.685302 10.407171 8.154052 C 10.407171 8.648844 10.511337 9.075928 10.730087 9.435303 C 10.943629 9.794678 11.224879 10.107178 11.568629 10.367594 C 11.912379 10.628011 12.287379 10.851969 12.683212 11.039469 C 13.079046 11.221761 13.464462 11.388428 13.839462 11.539469 C 14.214462 11.690511 14.537379 11.831136 14.808213 11.971761 C 15.079046 12.107178 15.256129 12.253011 15.334254 12.409261 C 15.115504 12.461344 14.917588 12.503011 14.740504 12.534261 C 14.568629 12.565511 14.375921 12.586344 14.167587 12.601969 C 13.954046 12.617594 13.698837 12.622803 13.396754 12.622803 C 13.105087 12.622803 12.860296 12.607178 12.667587 12.565511 C 12.469671 12.523844 12.297796 12.476969 12.151962 12.424886 C 12.006129 12.367594 11.875921 12.320719 11.750921 12.279053 C 11.625921 12.237386 11.480087 12.216553 11.323837 12.216553 C 11.068629 12.216553 10.886337 12.294678 10.771754 12.445719 C 10.657171 12.591553 10.599879 12.799886 10.599879 13.060303 C 10.599879 13.622803 10.855087 14.107178 11.365504 14.518636 Z M 25.855088 6.997802 L 27.053005 6.997802 C 27.391547 6.997802 27.719672 6.940511 28.042588 6.820719 C 28.360297 6.700927 28.625922 6.508219 28.829047 6.247802 C 29.03738 5.987386 29.141547 5.648844 29.141547 5.242594 C 29.141547 4.966552 29.058213 4.753011 28.896755 4.586344 C 28.740505 4.419677 28.500922 4.336344 28.178005 4.336344 C 27.766547 4.336344 27.401963 4.346761 27.079047 4.372802 C 26.761338 4.398844 26.454047 4.419677 26.167588 4.445719 C 25.88113 4.461344 25.579047 4.471761 25.261338 4.471761 C 24.928005 4.471761 24.59988 4.466552 24.266546 4.450927 C 23.938421 4.435302 23.605088 4.419677 23.266546 4.398844 C 22.928005 4.378011 22.579046 4.357177 22.209255 4.346761 C 21.844671 4.331136 21.459255 4.320719 21.047796 4.320719 C 20.709255 4.320719 20.464463 4.414469 20.31863 4.601969 C 20.172796 4.784261 20.09988 5.008219 20.09988 5.268636 C 20.09988 5.591552 20.151963 5.857177 20.25613 6.075927 C 20.365505 6.289469 20.53738 6.461344 20.776963 6.586344 C 21.016546 6.711344 21.34988 6.794677 21.771755 6.836344 C 22.19363 6.872802 22.610296 6.904052 23.016546 6.935302 C 23.058213 6.935302 23.09988 6.935302 23.141546 6.940511 C 23.073838 7.794677 23.016546 8.534261 22.969671 9.159261 C 22.922796 9.893636 22.896755 10.529053 22.896755 11.060303 C 22.896755 11.591553 22.922796 12.065511 22.969671 12.482178 C 23.021755 12.898844 23.105088 13.310303 23.214463 13.721761 C 23.386338 14.294678 23.610296 14.680095 23.896755 14.888428 C 24.183213 15.091553 24.495713 15.19572 24.834255 15.19572 C 25.219672 15.19572 25.500922 15.112386 25.688422 14.950928 C 25.875922 14.784261 25.969672 14.492595 25.969672 14.081136 C 25.969672 13.872803 25.954047 13.664469 25.917588 13.456136 C 25.891547 13.253011 25.860297 13.003011 25.829047 12.716553 C 25.797797 12.424886 25.771755 12.049886 25.745713 11.596761 C 25.72488 11.138428 25.719672 10.560303 25.730088 9.857178 C 25.745713 9.154053 25.78738 8.289469 25.844672 7.268636 C 25.84988 7.174886 25.855088 7.086344 25.855088 6.997802 Z M 32.28738 7.206136 C 32.151964 7.148844 32.03738 7.075927 31.933214 6.982177 C 31.620714 6.711344 31.464464 6.393636 31.464464 6.023844 C 31.464464 5.831136 31.516547 5.648844 31.610297 5.482177 C 31.704047 5.310302 31.922797 5.180094 32.261339 5.091552 C 32.91238 4.909261 33.610297 4.758219 34.344672 4.643636 C 35.084256 4.529052 35.782172 4.445719 36.443631 4.383219 C 37.105089 4.325927 37.651964 4.294677 38.084256 4.294677 C 38.896756 4.294677 39.469672 4.419677 39.797797 4.669677 C 40.131131 4.914469 40.292589 5.263427 40.292589 5.706136 C 40.292589 6.018636 40.198839 6.279052 40.016547 6.487386 C 39.829047 6.700927 39.558214 6.805094 39.193631 6.805094 C 38.615506 6.805094 38.021756 6.836344 37.417589 6.893636 C 36.808214 6.956136 36.230089 7.023844 35.683214 7.096761 C 35.396756 7.138427 35.131131 7.174886 34.88113 7.206136 C 34.860297 7.362386 34.829047 7.539469 34.782172 7.737386 C 34.719672 8.029052 34.651964 8.346761 34.584255 8.706136 C 34.594672 8.700927 34.605089 8.700927 34.615505 8.700927 C 34.891547 8.648844 35.198839 8.601969 35.537381 8.555094 C 35.870714 8.508219 36.245714 8.466552 36.662381 8.435302 C 37.079047 8.398844 37.547797 8.372802 38.068631 8.351969 C 38.537381 8.351969 38.870714 8.440511 39.068631 8.617594 C 39.261339 8.794677 39.360297 9.023844 39.360297 9.315511 C 39.360297 9.773844 39.224881 10.133219 38.948839 10.393636 C 38.672797 10.648844 38.323839 10.789469 37.901964 10.815511 C 37.401964 10.851969 36.948839 10.883219 36.547797 10.924886 C 36.146756 10.961344 35.782172 11.008219 35.459256 11.055094 C 35.131131 11.096761 34.829047 11.148844 34.553005 11.200928 C 34.526964 11.206136 34.500922 11.216553 34.469672 11.221761 C 34.50613 11.351969 34.553005 11.476969 34.610297 11.596761 C 34.750922 11.878011 34.948839 12.107178 35.214464 12.273844 C 35.480089 12.435303 35.803006 12.518636 36.172797 12.518636 C 36.573839 12.518636 36.938422 12.492594 37.256131 12.435303 C 37.579047 12.383219 37.865506 12.320719 38.110297 12.247803 C 38.365506 12.180094 38.589464 12.117594 38.782172 12.060303 C 38.974881 12.008219 39.151964 11.976969 39.303006 11.976969 C 39.615506 11.976969 39.849881 12.055094 40.006131 12.211344 C 40.167589 12.367594 40.250923 12.601969 40.250923 12.909261 C 40.250923 13.383219 40.089464 13.779053 39.761339 14.10197 C 39.438422 14.430095 38.969672 14.680095 38.355089 14.85197 C 37.745714 15.018636 37.011339 15.107178 36.157172 15.107178 C 35.407172 15.107178 34.75613 14.987386 34.204047 14.753011 C 33.651964 14.518636 33.19363 14.190511 32.834255 13.773844 C 32.47488 13.357178 32.204047 12.878011 32.021755 12.331136 C 31.844672 11.784261 31.750922 11.206136 31.750922 10.591553 C 31.750922 10.294678 31.771755 9.956136 31.813422 9.586344 C 31.84988 9.216553 31.91238 8.820719 32.000922 8.404052 C 32.079047 8.013427 32.178005 7.612386 32.28738 7.206136 Z M 43.943631 14.997803 C 44.131131 15.117595 44.365506 15.180095 44.636339 15.180095 C 44.974881 15.180095 45.245715 15.091553 45.44884 14.91447 C 45.646756 14.732178 45.76134 14.424886 45.79259 13.992594 C 45.875923 12.799886 46.021756 11.685303 46.245715 10.654053 C 46.44884 9.690511 46.82384 8.768636 47.370715 7.893636 C 47.506131 8.242594 47.610298 8.596761 47.672798 8.956136 C 47.756131 9.388428 47.839465 9.898844 47.928006 10.487386 C 48.068631 11.388428 48.23009 12.154053 48.41759 12.784261 C 48.60509 13.409261 48.839465 13.961344 49.120715 14.440511 C 49.26134 14.69572 49.422798 14.872803 49.60509 14.987386 C 49.79259 15.096761 50.026965 15.148845 50.318632 15.148845 C 50.610298 15.148845 50.849882 15.081136 51.037382 14.950928 C 51.224882 14.810303 51.381132 14.57072 51.51134 14.232178 C 51.839465 13.372803 52.115507 12.575928 52.329048 11.841553 C 52.54259 11.112386 52.740507 10.440511 52.912382 9.831136 C 53.089465 9.226969 53.276965 8.690511 53.469673 8.226969 C 53.547798 8.039469 53.631132 7.867594 53.719673 7.711344 C 53.750923 7.831136 53.776965 7.956136 53.803007 8.081136 C 53.849882 8.331136 53.881132 8.596761 53.901965 8.878011 C 53.938423 9.247803 53.98009 9.664469 54.026965 10.117594 C 54.07384 10.575928 54.125923 11.039469 54.193632 11.518636 C 54.26134 11.992594 54.344673 12.445719 54.44884 12.883219 C 54.558215 13.310303 54.693632 13.685303 54.860298 13.992594 C 55.063423 14.362386 55.303007 14.648845 55.57384 14.841553 C 55.849882 15.03947 56.188424 15.138428 56.589465 15.138428 C 56.933215 15.138428 57.204049 15.060303 57.396757 14.904053 C 57.589465 14.747803 57.709257 14.544678 57.740507 14.28947 C 57.776965 14.029053 57.735299 13.747803 57.615507 13.435303 C 57.433215 12.987386 57.282174 12.456136 57.151965 11.841553 C 57.021757 11.232178 56.907174 10.570719 56.813424 9.862386 C 56.714465 9.154053 56.631132 8.430094 56.547799 7.690511 C 56.474882 7.075927 56.375924 6.555094 56.240507 6.117594 C 56.10509 5.680094 55.933215 5.325927 55.73009 5.044677 C 55.521757 4.763427 55.282173 4.560302 55.01134 4.430094 C 54.745715 4.294677 54.443632 4.232177 54.110298 4.232177 C 53.688423 4.232177 53.32384 4.336344 53.01134 4.555094 C 52.69884 4.768636 52.428007 5.049886 52.193632 5.398844 C 51.959257 5.742594 51.740507 6.112386 51.537382 6.503011 C 51.360298 6.862386 51.193632 7.253011 51.053007 7.669677 C 50.907173 8.081136 50.771757 8.497802 50.651965 8.914469 C 50.563423 9.211344 50.485298 9.497803 50.401965 9.779053 C 50.370715 9.601969 50.344673 9.414469 50.313423 9.216553 C 50.235298 8.721761 50.125923 8.122802 49.974881 7.419677 C 49.844673 6.799886 49.714465 6.289469 49.57384 5.893636 C 49.438423 5.497802 49.29259 5.185302 49.131131 4.956136 C 48.969673 4.721761 48.79259 4.565511 48.599881 4.471761 C 48.401965 4.383219 48.183215 4.336344 47.943631 4.336344 C 47.57384 4.336344 47.224881 4.466552 46.891548 4.732177 C 46.558215 4.987386 46.256131 5.341552 45.98009 5.779052 C 45.82384 6.029052 45.678006 6.299886 45.532173 6.591552 C 45.506131 6.482177 45.464465 6.372802 45.412381 6.263427 C 45.287381 6.003011 45.105089 5.784261 44.875923 5.607177 C 44.646756 5.430094 44.365506 5.341552 44.032173 5.341552 C 43.662381 5.341552 43.407173 5.440511 43.261339 5.638427 C 43.115506 5.831136 43.042589 6.086344 43.042589 6.398844 C 43.042589 6.529052 43.053006 6.669677 43.073839 6.825927 C 43.089464 6.982177 43.110298 7.138427 43.131131 7.305094 C 43.151964 7.471761 43.172798 7.638427 43.193631 7.810302 C 43.214464 7.982177 43.224881 8.154052 43.224881 8.320719 C 43.224881 8.633219 43.214464 8.956136 43.193631 9.284261 C 43.172798 9.617594 43.151964 9.956136 43.131131 10.299886 C 43.110298 10.643636 43.099881 10.992594 43.099881 11.346761 C 43.099881 12.086344 43.131131 12.706136 43.188423 13.206136 C 43.250923 13.700928 43.344673 14.091553 43.469673 14.38322 C 43.594673 14.674886 43.756131 14.878011 43.943631 14.997803 Z M 60.245715 8.503011 C 60.391549 8.674886 60.605091 8.758219 60.886341 8.758219 C 61.146757 8.758219 61.370716 8.706136 61.563424 8.601969 C 61.750924 8.492594 61.948841 8.346761 62.146757 8.154052 C 62.339466 7.966552 62.526966 7.732177 62.704049 7.450927 C 62.886341 7.169677 63.047799 6.857177 63.193632 6.518636 C 63.339466 6.180094 63.454049 5.810302 63.542591 5.419677 C 63.625924 5.029052 63.667591 4.628011 63.667591 4.216552 C 63.667591 3.773844 63.516549 3.424885 63.209257 3.164469 C 62.901966 2.904052 62.532174 2.773844 62.089466 2.773844 C 61.688424 2.773844 61.391549 2.883219 61.193632 3.112385 C 61.000924 3.336344 60.891549 3.643635 60.870716 4.034261 C 60.860299 4.435302 60.813424 4.810302 60.730091 5.148844 C 60.641549 5.487386 60.542591 5.810302 60.433216 6.112386 C 60.32384 6.409261 60.23009 6.700927 60.146757 6.982177 C 60.068632 7.263427 60.032174 7.544677 60.032174 7.825927 C 60.032174 8.107177 60.10509 8.331136 60.245715 8.503011 Z M 64.599882 9.284261 C 64.761341 9.435303 64.995716 9.508219 65.308216 9.508219 C 65.610299 9.508219 65.875924 9.440511 66.105091 9.294678 C 66.334258 9.148844 66.558216 8.940511 66.766549 8.669677 C 67.146758 8.206136 67.401966 7.732177 67.532174 7.242594 C 67.662383 6.747802 67.730091 6.294677 67.730091 5.872802 C 67.730091 5.409261 67.594674 5.055094 67.323841 4.805094 C 67.053008 4.555094 66.683216 4.430094 66.209258 4.430094 C 65.891549 4.430094 65.636341 4.513427 65.459258 4.680094 C 65.276966 4.841552 65.162382 5.159261 65.110299 5.628011 C 65.084257 5.961344 65.026966 6.263427 64.948841 6.539469 C 64.865507 6.815511 64.782174 7.075927 64.688424 7.315511 C 64.599882 7.555094 64.521757 7.784261 64.454049 7.997802 C 64.391549 8.211344 64.360299 8.430094 64.360299 8.648844 C 64.360299 8.924886 64.438424 9.133219 64.599882 9.284261 Z M 64.599882 9.284261 " stroke="#ffffff" stroke-width="3.950468" stroke-opacity="1" stroke-miterlimit="4"/><g fill="#ca8a04" fill-opacity="1"><g transform="translate(163.737591, 244.79071)"><g><path d="M 1.28125 -4.6875 C 1.09375 -4.6875 0.921875 -4.757812 0.765625 -4.90625 C 0.617188 -5.0625 0.503906 -5.265625 0.421875 -5.515625 C 0.335938 -5.773438 0.296875 -6.050781 0.296875 -6.34375 C 0.296875 -6.675781 0.351562 -7.050781 0.46875 -7.46875 C 0.59375 -7.894531 0.769531 -8.273438 1 -8.609375 C 1.15625 -8.828125 1.304688 -8.972656 1.453125 -9.046875 C 1.597656 -9.128906 1.773438 -9.171875 1.984375 -9.171875 C 2.210938 -9.171875 2.410156 -9.109375 2.578125 -8.984375 C 2.742188 -8.867188 2.867188 -8.722656 2.953125 -8.546875 C 3.046875 -8.378906 3.09375 -8.207031 3.09375 -8.03125 C 3.09375 -7.914062 3.070312 -7.800781 3.03125 -7.6875 C 3 -7.570312 2.941406 -7.453125 2.859375 -7.328125 C 2.617188 -7.035156 2.4375 -6.742188 2.3125 -6.453125 C 2.195312 -6.171875 2.109375 -5.875 2.046875 -5.5625 C 1.992188 -5.28125 1.90625 -5.0625 1.78125 -4.90625 C 1.664062 -4.757812 1.5 -4.6875 1.28125 -4.6875 Z M 4.546875 -4.0625 C 4.359375 -4.0625 4.191406 -4.140625 4.046875 -4.296875 C 3.898438 -4.453125 3.785156 -4.65625 3.703125 -4.90625 C 3.617188 -5.164062 3.578125 -5.4375 3.578125 -5.71875 C 3.578125 -5.96875 3.613281 -6.253906 3.6875 -6.578125 C 3.757812 -6.898438 3.878906 -7.179688 4.046875 -7.421875 C 4.203125 -7.640625 4.359375 -7.785156 4.515625 -7.859375 C 4.671875 -7.941406 4.851562 -7.984375 5.0625 -7.984375 C 5.300781 -7.984375 5.503906 -7.925781 5.671875 -7.8125 C 5.847656 -7.707031 5.984375 -7.570312 6.078125 -7.40625 C 6.179688 -7.238281 6.234375 -7.078125 6.234375 -6.921875 C 6.234375 -6.785156 6.203125 -6.65625 6.140625 -6.53125 C 6.085938 -6.414062 6.007812 -6.285156 5.90625 -6.140625 C 5.738281 -5.929688 5.609375 -5.734375 5.515625 -5.546875 C 5.429688 -5.359375 5.367188 -5.15625 5.328125 -4.9375 C 5.273438 -4.664062 5.1875 -4.453125 5.0625 -4.296875 C 4.9375 -4.140625 4.765625 -4.0625 4.546875 -4.0625 Z M 4.546875 -4.0625 "/></g></g></g><g fill="#ca8a04" fill-opacity="1"><g transform="translate(171.111727, 244.79071)"><g><path d="M 2.859375 0.09375 C 2.097656 0.09375 1.523438 -0.0546875 1.140625 -0.359375 C 0.765625 -0.671875 0.578125 -1.035156 0.578125 -1.453125 C 0.578125 -1.648438 0.617188 -1.804688 0.703125 -1.921875 C 0.785156 -2.035156 0.921875 -2.09375 1.109375 -2.09375 C 1.234375 -2.09375 1.34375 -2.078125 1.4375 -2.046875 C 1.53125 -2.015625 1.628906 -1.976562 1.734375 -1.9375 C 1.847656 -1.894531 1.976562 -1.859375 2.125 -1.828125 C 2.269531 -1.796875 2.453125 -1.78125 2.671875 -1.78125 C 2.898438 -1.78125 3.09375 -1.785156 3.25 -1.796875 C 3.40625 -1.804688 3.546875 -1.820312 3.671875 -1.84375 C 3.804688 -1.875 3.957031 -1.90625 4.125 -1.9375 C 4.0625 -2.0625 3.925781 -2.171875 3.71875 -2.265625 C 3.519531 -2.367188 3.28125 -2.476562 3 -2.59375 C 2.71875 -2.707031 2.425781 -2.832031 2.125 -2.96875 C 1.832031 -3.113281 1.554688 -3.28125 1.296875 -3.46875 C 1.035156 -3.664062 0.820312 -3.898438 0.65625 -4.171875 C 0.5 -4.441406 0.421875 -4.765625 0.421875 -5.140625 C 0.421875 -5.484375 0.523438 -5.800781 0.734375 -6.09375 C 0.953125 -6.394531 1.234375 -6.664062 1.578125 -6.90625 C 1.921875 -7.144531 2.289062 -7.34375 2.6875 -7.5 C 3.082031 -7.664062 3.46875 -7.789062 3.84375 -7.875 C 4.226562 -7.96875 4.5625 -8.015625 4.84375 -8.015625 C 5.113281 -8.015625 5.328125 -7.960938 5.484375 -7.859375 C 5.640625 -7.753906 5.75 -7.617188 5.8125 -7.453125 C 5.882812 -7.296875 5.921875 -7.125 5.921875 -6.9375 C 5.921875 -6.75 5.867188 -6.582031 5.765625 -6.4375 C 5.671875 -6.289062 5.519531 -6.195312 5.3125 -6.15625 C 4.757812 -6.050781 4.265625 -5.9375 3.828125 -5.8125 C 3.398438 -5.6875 3.0625 -5.5625 2.8125 -5.4375 C 2.570312 -5.3125 2.453125 -5.195312 2.453125 -5.09375 C 2.453125 -4.96875 2.539062 -4.847656 2.71875 -4.734375 C 2.894531 -4.628906 3.125 -4.519531 3.40625 -4.40625 C 3.6875 -4.289062 3.984375 -4.164062 4.296875 -4.03125 C 4.617188 -3.894531 4.921875 -3.726562 5.203125 -3.53125 C 5.484375 -3.332031 5.710938 -3.101562 5.890625 -2.84375 C 6.078125 -2.582031 6.171875 -2.265625 6.171875 -1.890625 C 6.171875 -1.546875 6.101562 -1.25 5.96875 -1 C 5.832031 -0.75 5.625 -0.539062 5.34375 -0.375 C 5.070312 -0.21875 4.726562 -0.0976562 4.3125 -0.015625 C 3.894531 0.0546875 3.410156 0.09375 2.859375 0.09375 Z M 2.859375 0.09375 "/></g></g></g><g fill="#ca8a04" fill-opacity="1"><g transform="translate(178.677505, 244.79071)"><g><path d="M 3.6875 0.140625 C 3.4375 0.140625 3.203125 0.0664062 2.984375 -0.078125 C 2.765625 -0.234375 2.59375 -0.523438 2.46875 -0.953125 C 2.382812 -1.265625 2.320312 -1.578125 2.28125 -1.890625 C 2.25 -2.203125 2.234375 -2.554688 2.234375 -2.953125 C 2.234375 -3.347656 2.25 -3.820312 2.28125 -4.375 C 2.320312 -4.9375 2.378906 -5.613281 2.453125 -6.40625 C 2.460938 -6.644531 2.539062 -6.835938 2.6875 -6.984375 C 2.832031 -7.140625 3.023438 -7.21875 3.265625 -7.21875 C 3.722656 -7.21875 4.039062 -7.101562 4.21875 -6.875 C 4.394531 -6.65625 4.46875 -6.296875 4.4375 -5.796875 C 4.394531 -5.023438 4.367188 -4.375 4.359375 -3.84375 C 4.347656 -3.320312 4.351562 -2.890625 4.375 -2.546875 C 4.394531 -2.210938 4.414062 -1.9375 4.4375 -1.71875 C 4.457031 -1.5 4.476562 -1.3125 4.5 -1.15625 C 4.519531 -1 4.53125 -0.84375 4.53125 -0.6875 C 4.53125 -0.375 4.460938 -0.15625 4.328125 -0.03125 C 4.191406 0.0820312 3.976562 0.140625 3.6875 0.140625 Z M 5.34375 -6 C 4.957031 -6 4.59375 -6 4.25 -6 C 3.914062 -6 3.585938 -6.003906 3.265625 -6.015625 C 2.941406 -6.023438 2.625 -6.035156 2.3125 -6.046875 C 2.007812 -6.066406 1.703125 -6.09375 1.390625 -6.125 C 1.066406 -6.15625 0.816406 -6.21875 0.640625 -6.3125 C 0.460938 -6.40625 0.332031 -6.53125 0.25 -6.6875 C 0.175781 -6.851562 0.140625 -7.054688 0.140625 -7.296875 C 0.140625 -7.492188 0.191406 -7.660156 0.296875 -7.796875 C 0.410156 -7.941406 0.59375 -8.015625 0.84375 -8.015625 C 1.15625 -8.015625 1.445312 -8.003906 1.71875 -7.984375 C 1.988281 -7.972656 2.25 -7.960938 2.5 -7.953125 C 2.757812 -7.941406 3.007812 -7.925781 3.25 -7.90625 C 3.5 -7.894531 3.75 -7.890625 4 -7.890625 C 4.238281 -7.890625 4.46875 -7.894531 4.6875 -7.90625 C 4.90625 -7.925781 5.132812 -7.945312 5.375 -7.96875 C 5.613281 -7.988281 5.882812 -8 6.1875 -8 C 6.425781 -8 6.609375 -7.9375 6.734375 -7.8125 C 6.859375 -7.6875 6.921875 -7.523438 6.921875 -7.328125 C 6.921875 -7.015625 6.84375 -6.757812 6.6875 -6.5625 C 6.53125 -6.363281 6.332031 -6.21875 6.09375 -6.125 C 5.851562 -6.039062 5.601562 -6 5.34375 -6 Z M 5.34375 -6 "/></g></g></g><g fill="#ca8a04" fill-opacity="1"><g transform="translate(186.773145, 244.79071)"><g><path d="M 4.078125 0.078125 C 3.515625 0.078125 3.023438 -0.0078125 2.609375 -0.1875 C 2.203125 -0.363281 1.863281 -0.609375 1.59375 -0.921875 C 1.320312 -1.234375 1.117188 -1.59375 0.984375 -2 C 0.847656 -2.414062 0.78125 -2.851562 0.78125 -3.3125 C 0.78125 -3.53125 0.796875 -3.78125 0.828125 -4.0625 C 0.859375 -4.34375 0.90625 -4.640625 0.96875 -4.953125 C 1.03125 -5.265625 1.109375 -5.582031 1.203125 -5.90625 C 1.273438 -6.207031 1.414062 -6.4375 1.625 -6.59375 C 1.832031 -6.757812 2.082031 -6.84375 2.375 -6.84375 C 2.519531 -6.84375 2.648438 -6.8125 2.765625 -6.75 C 2.878906 -6.695312 2.96875 -6.613281 3.03125 -6.5 C 3.101562 -6.394531 3.140625 -6.265625 3.140625 -6.109375 C 3.140625 -5.953125 3.109375 -5.726562 3.046875 -5.4375 C 2.984375 -5.15625 2.921875 -4.832031 2.859375 -4.46875 C 2.796875 -4.101562 2.765625 -3.707031 2.765625 -3.28125 C 2.765625 -3.007812 2.816406 -2.765625 2.921875 -2.546875 C 3.023438 -2.335938 3.175781 -2.171875 3.375 -2.046875 C 3.570312 -1.921875 3.8125 -1.859375 4.09375 -1.859375 C 4.394531 -1.859375 4.664062 -1.878906 4.90625 -1.921875 C 5.144531 -1.960938 5.359375 -2.007812 5.546875 -2.0625 C 5.734375 -2.113281 5.898438 -2.160156 6.046875 -2.203125 C 6.191406 -2.242188 6.320312 -2.265625 6.4375 -2.265625 C 6.675781 -2.265625 6.851562 -2.207031 6.96875 -2.09375 C 7.09375 -1.976562 7.15625 -1.800781 7.15625 -1.5625 C 7.15625 -1.207031 7.03125 -0.90625 6.78125 -0.65625 C 6.539062 -0.414062 6.191406 -0.234375 5.734375 -0.109375 C 5.273438 0.015625 4.722656 0.078125 4.078125 0.078125 Z M 2.28125 -2.71875 C 2.101562 -2.675781 1.960938 -2.695312 1.859375 -2.78125 C 1.765625 -2.863281 1.695312 -2.976562 1.65625 -3.125 C 1.625 -3.28125 1.609375 -3.445312 1.609375 -3.625 C 1.609375 -3.863281 1.675781 -4.070312 1.8125 -4.25 C 1.957031 -4.4375 2.132812 -4.554688 2.34375 -4.609375 C 2.53125 -4.648438 2.722656 -4.6875 2.921875 -4.71875 C 3.128906 -4.757812 3.359375 -4.796875 3.609375 -4.828125 C 3.867188 -4.867188 4.15625 -4.898438 4.46875 -4.921875 C 4.78125 -4.953125 5.128906 -4.972656 5.515625 -4.984375 C 5.867188 -4.984375 6.117188 -4.914062 6.265625 -4.78125 C 6.410156 -4.65625 6.484375 -4.484375 6.484375 -4.265625 C 6.484375 -3.921875 6.378906 -3.648438 6.171875 -3.453125 C 5.960938 -3.265625 5.703125 -3.160156 5.390625 -3.140625 C 5.015625 -3.117188 4.675781 -3.09375 4.375 -3.0625 C 4.070312 -3.03125 3.796875 -2.992188 3.546875 -2.953125 C 3.304688 -2.921875 3.082031 -2.882812 2.875 -2.84375 C 2.675781 -2.800781 2.476562 -2.757812 2.28125 -2.71875 Z M 1.921875 -5.703125 C 1.484375 -5.703125 1.144531 -5.800781 0.90625 -6 C 0.675781 -6.207031 0.5625 -6.453125 0.5625 -6.734375 C 0.5625 -6.878906 0.597656 -7.015625 0.671875 -7.140625 C 0.742188 -7.265625 0.90625 -7.363281 1.15625 -7.4375 C 1.644531 -7.570312 2.164062 -7.679688 2.71875 -7.765625 C 3.269531 -7.847656 3.796875 -7.910156 4.296875 -7.953125 C 4.796875 -8.003906 5.207031 -8.03125 5.53125 -8.03125 C 6.132812 -8.03125 6.5625 -7.9375 6.8125 -7.75 C 7.0625 -7.5625 7.1875 -7.300781 7.1875 -6.96875 C 7.1875 -6.738281 7.113281 -6.539062 6.96875 -6.375 C 6.832031 -6.21875 6.628906 -6.140625 6.359375 -6.140625 C 5.921875 -6.140625 5.472656 -6.117188 5.015625 -6.078125 C 4.566406 -6.035156 4.132812 -5.984375 3.71875 -5.921875 C 3.3125 -5.867188 2.953125 -5.816406 2.640625 -5.765625 C 2.328125 -5.722656 2.085938 -5.703125 1.921875 -5.703125 Z M 1.921875 -5.703125 "/></g></g></g><g fill="#ca8a04" fill-opacity="1"><g transform="translate(195.454996, 244.79071)"><g><path d="M 1.765625 0.140625 C 1.554688 0.140625 1.378906 0.09375 1.234375 0 C 1.097656 -0.09375 0.984375 -0.25 0.890625 -0.46875 C 0.796875 -0.6875 0.722656 -0.976562 0.671875 -1.34375 C 0.628906 -1.71875 0.609375 -2.179688 0.609375 -2.734375 C 0.609375 -3.003906 0.613281 -3.269531 0.625 -3.53125 C 0.644531 -3.789062 0.660156 -4.039062 0.671875 -4.28125 C 0.691406 -4.53125 0.703125 -4.773438 0.703125 -5.015625 C 0.703125 -5.140625 0.691406 -5.265625 0.671875 -5.390625 C 0.660156 -5.515625 0.644531 -5.640625 0.625 -5.765625 C 0.613281 -5.890625 0.597656 -6.007812 0.578125 -6.125 C 0.566406 -6.25 0.5625 -6.359375 0.5625 -6.453125 C 0.5625 -6.679688 0.613281 -6.867188 0.71875 -7.015625 C 0.832031 -7.171875 1.03125 -7.25 1.3125 -7.25 C 1.5625 -7.25 1.769531 -7.179688 1.9375 -7.046875 C 2.113281 -6.910156 2.25 -6.742188 2.34375 -6.546875 C 2.4375 -6.359375 2.484375 -6.164062 2.484375 -5.96875 L 2.203125 -5.78125 C 2.367188 -6.207031 2.554688 -6.582031 2.765625 -6.90625 C 2.972656 -7.238281 3.203125 -7.503906 3.453125 -7.703125 C 3.703125 -7.898438 3.960938 -8 4.234375 -8 C 4.421875 -8 4.585938 -7.960938 4.734375 -7.890625 C 4.878906 -7.828125 5.007812 -7.707031 5.125 -7.53125 C 5.25 -7.363281 5.363281 -7.128906 5.46875 -6.828125 C 5.570312 -6.535156 5.671875 -6.15625 5.765625 -5.6875 C 5.878906 -5.15625 5.960938 -4.703125 6.015625 -4.328125 C 6.078125 -3.960938 6.132812 -3.632812 6.1875 -3.34375 C 6.25 -3.050781 6.347656 -2.742188 6.484375 -2.421875 L 5.75 -2.859375 C 5.84375 -3.097656 5.929688 -3.363281 6.015625 -3.65625 C 6.097656 -3.945312 6.179688 -4.25 6.265625 -4.5625 C 6.359375 -4.875 6.457031 -5.1875 6.5625 -5.5 C 6.675781 -5.8125 6.800781 -6.101562 6.9375 -6.375 C 7.082031 -6.664062 7.242188 -6.941406 7.421875 -7.203125 C 7.597656 -7.460938 7.800781 -7.671875 8.03125 -7.828125 C 8.269531 -7.992188 8.546875 -8.078125 8.859375 -8.078125 C 9.109375 -8.078125 9.332031 -8.023438 9.53125 -7.921875 C 9.738281 -7.828125 9.921875 -7.675781 10.078125 -7.46875 C 10.234375 -7.257812 10.359375 -6.988281 10.453125 -6.65625 C 10.554688 -6.332031 10.632812 -5.941406 10.6875 -5.484375 C 10.75 -4.921875 10.816406 -4.375 10.890625 -3.84375 C 10.960938 -3.320312 11.046875 -2.832031 11.140625 -2.375 C 11.242188 -1.914062 11.363281 -1.515625 11.5 -1.171875 C 11.582031 -0.941406 11.609375 -0.726562 11.578125 -0.53125 C 11.554688 -0.34375 11.472656 -0.191406 11.328125 -0.078125 C 11.179688 0.0351562 10.984375 0.09375 10.734375 0.09375 C 10.429688 0.09375 10.175781 0.0195312 9.96875 -0.125 C 9.757812 -0.269531 9.582031 -0.476562 9.4375 -0.75 C 9.300781 -0.988281 9.191406 -1.269531 9.109375 -1.59375 C 9.035156 -1.914062 8.972656 -2.253906 8.921875 -2.609375 C 8.878906 -2.960938 8.835938 -3.3125 8.796875 -3.65625 C 8.765625 -4 8.734375 -4.3125 8.703125 -4.59375 C 8.691406 -4.800781 8.664062 -5 8.625 -5.1875 C 8.59375 -5.375 8.546875 -5.554688 8.484375 -5.734375 C 8.429688 -5.921875 8.351562 -6.097656 8.25 -6.265625 L 8.921875 -5.953125 C 8.710938 -5.722656 8.535156 -5.429688 8.390625 -5.078125 C 8.242188 -4.734375 8.101562 -4.332031 7.96875 -3.875 C 7.832031 -3.414062 7.679688 -2.910156 7.515625 -2.359375 C 7.359375 -1.816406 7.160156 -1.222656 6.921875 -0.578125 C 6.816406 -0.316406 6.691406 -0.132812 6.546875 -0.03125 C 6.410156 0.0625 6.238281 0.109375 6.03125 0.109375 C 5.8125 0.109375 5.628906 0.0664062 5.484375 -0.015625 C 5.347656 -0.0976562 5.226562 -0.234375 5.125 -0.421875 C 4.914062 -0.773438 4.738281 -1.1875 4.59375 -1.65625 C 4.457031 -2.132812 4.335938 -2.710938 4.234375 -3.390625 C 4.160156 -3.828125 4.09375 -4.207031 4.03125 -4.53125 C 3.976562 -4.851562 3.882812 -5.175781 3.75 -5.5 L 3.90625 -5.46875 C 3.445312 -4.769531 3.132812 -4.03125 2.96875 -3.25 C 2.800781 -2.476562 2.6875 -1.644531 2.625 -0.75 C 2.601562 -0.425781 2.515625 -0.195312 2.359375 -0.0625 C 2.210938 0.0703125 2.015625 0.140625 1.765625 0.140625 Z M 1.765625 0.140625 "/></g></g></g><g fill="#ca8a04" fill-opacity="1"><g transform="translate(208.341863, 244.79071)"><g><path d="M 1.0625 -4.6875 C 0.851562 -4.6875 0.691406 -4.75 0.578125 -4.875 C 0.472656 -5 0.421875 -5.164062 0.421875 -5.375 C 0.421875 -5.59375 0.445312 -5.804688 0.5 -6.015625 C 0.5625 -6.222656 0.632812 -6.4375 0.71875 -6.65625 C 0.800781 -6.882812 0.875 -7.125 0.9375 -7.375 C 1 -7.632812 1.035156 -7.914062 1.046875 -8.21875 C 1.066406 -8.507812 1.148438 -8.738281 1.296875 -8.90625 C 1.441406 -9.082031 1.664062 -9.171875 1.96875 -9.171875 C 2.289062 -9.171875 2.566406 -9.070312 2.796875 -8.875 C 3.023438 -8.675781 3.140625 -8.414062 3.140625 -8.09375 C 3.140625 -7.78125 3.109375 -7.476562 3.046875 -7.1875 C 2.984375 -6.894531 2.894531 -6.617188 2.78125 -6.359375 C 2.675781 -6.109375 2.554688 -5.875 2.421875 -5.65625 C 2.285156 -5.445312 2.148438 -5.273438 2.015625 -5.140625 C 1.859375 -4.992188 1.707031 -4.878906 1.5625 -4.796875 C 1.425781 -4.722656 1.257812 -4.6875 1.0625 -4.6875 Z M 4.375 -4.125 C 4.144531 -4.125 3.96875 -4.175781 3.84375 -4.28125 C 3.726562 -4.394531 3.671875 -4.554688 3.671875 -4.765625 C 3.671875 -4.929688 3.691406 -5.09375 3.734375 -5.25 C 3.785156 -5.414062 3.84375 -5.585938 3.90625 -5.765625 C 3.976562 -5.941406 4.046875 -6.132812 4.109375 -6.34375 C 4.171875 -6.550781 4.210938 -6.78125 4.234375 -7.03125 C 4.265625 -7.382812 4.347656 -7.625 4.484375 -7.75 C 4.617188 -7.875 4.804688 -7.9375 5.046875 -7.9375 C 5.398438 -7.9375 5.675781 -7.835938 5.875 -7.640625 C 6.082031 -7.453125 6.1875 -7.1875 6.1875 -6.84375 C 6.1875 -6.53125 6.140625 -6.1875 6.046875 -5.8125 C 5.953125 -5.445312 5.757812 -5.09375 5.46875 -4.75 C 5.3125 -4.539062 5.144531 -4.382812 4.96875 -4.28125 C 4.800781 -4.175781 4.601562 -4.125 4.375 -4.125 Z M 4.375 -4.125 "/></g></g></g></svg>